PathFileType	4	(X/Y/Z)	Patient4_TMGait_0pt5_01_left_01.trc.trc
DataRate	CameraRate	NumFrames	NumMarkers	Units	OrigDataRate	OrigDataStartFrame	OrigNumFrames
74.468085106383	74.468085106383	4	33	mm	74.468085106383	106	       141
Frame#	Time	L.ASIS			Sacral			L.Shoulder			Chest			R.Shoulder			Neck			R.ASIS			R.Thigh.Superior			R.Thigh.Lateral			R.Thigh.Inferior			R.Patella			L.Thigh.Superior			L.Thigh.Lateral			L.Thigh.Inferior			L.Patella			L.Shank.Superior			L.Shank.Lateral			L.Shank.Inferior			R.Shank.Superior			R.Shank.Lateral			R.Shank.Inferior			R.Heel			R.Midfoot.Superior			R.Midfoot.Lateral			R.Toe			L.Heel			L.Midfoot.Lateral			L.Midfoot.Superior			L.Toe			L.Elbow			L.Wrist			R.Elbow			R.Wrist			
		X1	Y1	Z1	X2	Y2	Z2	X3	Y3	Z3	X4	Y4	Z4	X5	Y5	Z5	X6	Y6	Z6	X7	Y7	Z7	X8	Y8	Z8	X9	Y9	Z9	X10	Y10	Z10	X11	Y11	Z11	X12	Y12	Z12	X13	Y13	Z13	X14	Y14	Z14	X15	Y15	Z15	X16	Y16	Z16	X17	Y17	Z17	X18	Y18	Z18	X19	Y19	Z19	X20	Y20	Z20	X21	Y21	Z21	X22	Y22	Z22	X23	Y23	Z23	X24	Y24	Z24	X25	Y25	Z25	X26	Y26	Z26	X27	Y27	Z27	X28	Y28	Z28	X29	Y29	Z29	X30	Y30	Z30	X31	Y31	Z31	X32	Y32	Z32	X33	Y33	Z33	

106	2.580000000000	754.758020082696	970.089915712485	355.560411858851	552.303393675698	1007.809425266453	527.683781226335	704.599018787703	1439.643260195547	341.624926424152	820.654548742511	1369.979100730672	494.625255136948	748.680052468501	1441.313276035794	675.813367845184	715.599769302236	1499.728510367570	493.076847122136	789.745645978255	941.941449423121	627.025173717566	823.462893817909	738.839816806680	590.222297928486	742.229058345881	632.880601179081	653.017771910556	810.520253640188	578.694397666185	566.802034190274	806.616733781690	489.799511431742	570.587315976467	840.038800231677	785.694206260482	381.874700284221	791.760252537355	657.769137223523	311.074787378907	894.411208474149	595.281514109965	370.109042452287	909.804284121664	509.006798656760	364.579172566949	856.037163164927	436.990565982687	357.434392908647	727.493316814174	365.549232214937	308.712790893088	744.899079784431	236.853947557005	364.135921531278	776.953493496349	402.028342955293	579.746109229588	705.395097528577	299.582421370959	641.938229509768	742.533405947518	204.867561664675	577.488074856256	602.330593304330	42.326182503761	548.367908288716	773.606456090814	97.301872126466	583.755470354627	685.499571030940	36.240152692225	623.570411216540	893.334435321419	46.198322496977	612.955936113611	574.839717832695	127.677961713370	403.134437842402	640.305323256677	99.957168142385	321.121173316936	739.697302687463	134.114037049599	341.309947563859	842.554108930488	47.269730534253	310.069226189150	636.186996723247	1090.298606591661	224.754098418260	710.306349349606	839.678901026681	206.242633178183	749.799910734455	1106.195593945397	818.898377271066	931.300598290309	920.581873876532	805.080811921634	
107	2.593428571429	752.603095192635	970.914209369568	355.994958007065	551.427038600740	1008.814002984722	529.436521006447	704.235200984536	1439.631235113556	341.984989850275	821.243905031892	1369.797735982919	494.218204927140	751.128822012979	1442.044821777193	675.811626497159	716.404830368390	1499.979244048020	493.228356078883	789.044416766807	941.537900564193	627.095879033840	820.556529588513	738.090098444614	589.479264539779	738.976641698575	632.924680716513	653.309365211611	805.764779927407	578.085622675653	566.492073001395	801.055812880830	489.356434183198	570.481321443979	838.584057150084	787.193279033423	382.343409722414	790.246649137964	658.999550976978	311.773852157418	892.484086714598	596.773523501773	371.481282630107	909.457474572355	512.486962052321	366.164265990975	859.967574609271	439.428579491176	358.121585216679	737.180317268785	359.817177857048	308.134455595868	763.127726920520	232.234878951175	363.239997992133	771.237549621363	401.736474438256	579.692079115731	699.482334010430	299.497172862852	642.037166150859	736.144663322171	204.721062342325	577.408216947496	595.528039871097	42.259900336544	548.365770704776	766.800588513687	97.269373441741	583.721912580324	678.700049780887	36.226998474374	623.559756919627	886.523565923374	46.213282839386	612.952463345239	601.139747692996	111.230157361357	400.872172662357	668.785516869416	88.675126366554	319.106165065542	765.318849115790	129.572547520264	340.033801742150	874.102402238481	50.643238262233	309.047727432270	631.276834765488	1090.807800509059	226.913179442120	694.696954899419	837.644108230762	207.201267481898	756.927095353572	1107.454268756832	819.494284671086	945.830290800082	930.172018341214	801.546101406439	
108	2.606857142857	750.517253971757	971.523218872960	356.313495863494	550.597308840141	1009.739813738655	531.125216416065	703.959604627918	1439.501815721105	342.216372733553	821.874104730158	1369.478721194369	493.694021193063	753.567817359956	1442.625634155216	675.656853706562	717.245395688452	1500.101568423675	493.254111061084	788.364481488967	941.057543562035	627.083075585045	817.699185424800	737.290294640623	588.792337604117	735.776702277007	632.920824755915	653.640306828859	801.073357514213	577.441064631305	566.251158442185	795.571309524536	488.883730334333	570.472268406372	836.689412619449	788.054232109251	382.705078140194	788.031840369484	659.782780725621	312.239305428974	889.590115922012	597.541647929871	372.878718356298	908.099930832412	515.527731910267	367.739256550513	863.107306878283	441.755056798062	358.778699640716	746.946357081039	353.999294294837	307.422000465670	781.596735973766	228.221813664438	362.458207831500	765.578246232838	401.403353993961	579.697827352797	693.616561353269	299.372319165546	642.175746671907	729.769202531925	204.528659167435	577.362071925229	588.730590164576	42.189896692851	548.372659296339	759.985400809010	97.215289659696	583.691901740076	671.901097812014	36.204687978415	623.560843950590	879.716212462524	46.186547044685	612.955659773800	628.712370542652	95.626016873174	398.660132448175	698.418351166022	78.369418104427	317.319117013193	791.547065533869	125.999682953827	339.054417779387	905.937386334835	55.406870401253	308.702882501871	626.983393394461	1091.202131471361	228.824937381313	679.966136400206	836.023416199709	208.165296444148	763.764652339229	1108.543913574808	819.676129250062	959.777592954152	940.191257089711	797.253159070981	
109	2.620285714286	748.519169436616	971.902571008586	356.521935602758	549.835363361804	1010.567614790409	532.747308244963	703.781550354237	1439.259859095573	342.316391094263	822.536193474707	1369.024875385265	493.061575580023	755.957375848499	1443.036807295159	675.355647322310	718.126267643335	1500.094138207991	493.151578448783	787.721629476688	940.516697129924	627.005225664544	814.948190012002	736.446273427887	588.201713057236	732.660333076779	632.852954823136	653.995992087038	796.515695106711	576.756250208197	566.084198336705	790.233674475002	488.372212879250	570.542607122116	834.360166164387	788.297390477806	383.005278761855	785.264672671710	660.174350596914	312.430828446465	885.916249793042	597.680272553913	374.254744945227	905.921172418505	518.163086006936	369.241916565788	865.535085617912	444.026723941688	359.373098842977	756.732318611384	348.397051870085	306.605071768101	800.002145987669	225.116306450200	361.836425991088	760.031086007284	401.023984175147	579.749178928751	687.840987559241	299.214077925731	642.343362810532	723.434028870796	204.289827037048	577.342581258275	581.940850455621	42.125810102445	548.390232799765	753.167449261389	97.140326295257	583.663212024133	665.107689000436	36.176493575761	623.574562042855	872.919907228053	46.113493923447	612.968395510585	657.035242909119	81.524431553073	396.614834552296	728.646207039091	69.522609149947	315.883636349140	817.896358052549	123.689868977309	338.448092319325	937.405250574764	61.631582138907	309.143989332278	623.243502774937	1091.483552059675	230.457481863194	666.252895167303	834.789328679729	209.121972833330	770.369557693126	1109.401570681867	819.423582800275	973.077439552660	950.494471546893	792.250154152994	
